<?xml version="1.0" encoding="UTF-8"?>
<svg enable-background="new 0 0 511.999 511.999" version="1.1" viewBox="0 0 512 512" xml:space="preserve" xmlns="http://www.w3.org/2000/svg" xmlns:cc="http://creativecommons.org/ns#" xmlns:dc="http://purl.org/dc/elements/1.1/" xmlns:rdf="http://www.w3.org/1999/02/22-rdf-syntax-ns#"><metadata><rdf:RDF><cc:Work rdf:about=""><dc:format>image/svg+xml</dc:format><dc:type rdf:resource="http://purl.org/dc/dcmitype/StillImage"/><dc:title/></cc:Work></rdf:RDF></metadata>

<circle cx="244.2" cy="227.01" r="75.04" fill="#333" opacity=".995" stroke-width="2.1"/><g transform="matrix(.2635 0 0 .2635 175.45 154.47)" fill="#fc0">
	<g fill="#fc0">
		<path d="m345.31 318.23-14.707 153h51.798c14.088 0 26.423-9.452 30.088-23.054l35.014-129.95z" fill="#fc0"/>
	</g>
</g>
<g transform="matrix(.2635 0 0 .2635 175.45 154.47)" fill="#a80">
	<g fill="#a80">
		<path d="m166.69 318.23h-102.19l35.014 129.95c3.665 13.603 16.001 23.054 30.088 23.054h51.797z" fill="#a80"/>
	</g>
</g>
<g transform="matrix(.2635 0 0 .2635 175.45 154.47)" fill="#d4aa00">
	<g fill="#d4aa00">
		<polygon points="314.61 318.23 197.39 318.23 212.1 471.23 299.9 471.23" fill="#d4aa00"/>
	</g>
</g>
<g transform="matrix(.2635 0 0 .2635 176.51 159.42)" fill="#fc0">
	<g fill="#fc0">
		<path d="m467.44 198.56c-0.438 0-0.886 0.02-1.324 0.041l-0.275 0.01c-7.018 0.255-13.304-4.329-15.229-11.083-24.631-86.411-104.66-146.76-194.61-146.76s-169.98 60.345-194.61 146.76c-1.925 6.754-8.221 11.338-15.229 11.083l-0.275-0.01c-0.438-0.02-0.876-0.041-1.324-0.041-24.57 0-44.556 19.986-44.556 44.556 0 22.93 17.164 41.979 39.931 44.321 0.52 0.051 1.039 0.132 1.538 0.234h289.85 0.02 139.19c0.499-0.102 1.019-0.183 1.538-0.234 22.767-2.343 39.931-21.392 39.931-44.321 1e-3 -24.57-19.986-44.556-44.555-44.556z" fill="#fc0"/>
	</g>
</g>















<text x="204.8015" y="223.81424" fill="#008080" font-family="NanumSquareRound" font-size="21.197px" font-weight="bold" letter-spacing="0px" opacity=".995" stroke-width=".52993" word-spacing="0px" style="font-variant-caps:normal;font-variant-east-asian:normal;font-variant-ligatures:normal;font-variant-numeric:normal;line-height:1.25" xml:space="preserve"><tspan x="204.8015" y="223.81424" fill="#008080" stroke-width=".52993">MUFFIN</tspan></text></svg>
